# xmcd
#
# Track frame offsets:
#	150
#	25246
#	44260
#	64513
#	87296
#
# Disc length: 1445 seconds
#
# Revision: 1
# Processed by: cddbd v1.5.2PL0 Copyright (c) Steve Scherf et al.
# Submitted via: audiograbber 1.83.01
#
DISCID=3505a305
DTITLE=Jörgen "hoppe"Andersson - Suzanna.com
DYEAR=2003
DGENRE=Blues
TTITLE0=Rullande tåg
TTITLE1=Suzanna.com
TTITLE2=Ge mej en chans
TTITLE3=De é kris
TTITLE4=Ensamt brev
EXTD=
EXTT0=
EXTT1=
EXTT2=
EXTT3=
EXTT4=
PLAYORDER=
